<svg xmlns="http://www.w3.org/2000/svg" width="1035.066" height="240" viewBox="0 0 1035.066 240"><path d="M213.746 33.954c-1.595 1.289-5.571 2.84-8.63 3.91a218.141 218.141 0 0 0 7.363-12.17l-1.967-1.988c-2.272 2.666-7.232 8.325-14.18 15.579-4.697-1.726-9.635-1.398-9.635-1.398-23.707 1.835-42.126 11.208-56.066 23.444-10.072-6.118-23.64-9.57-35.548-12.454-2.819-.656-11.034-3.19-15.579-10.444-.524-.852-4.5-7.429-2.578-15.12C79.504 13.066 90.516 8.98 95.913 6.992c6.402-2.382 11.602-2.076 14.093-2.076 14.114 0 16.365 12.105 16.365 12.105l9.854.568S137.645 0 108.039 0s-48.2 23.51-48.2 33.386c0 9.854 17.196 21.412 46.234 25.935 8.04 1.245 13.59 4.654 17.217 9.155C110.683 82 102.577 97.644 98.12 110.47c-22.024 9.723-44.966 20.538-61.659 35.549-32.228-7.08-26.11-47.304-11.296-56.808l-7.341-5.375C12.164 89.1 8.559 94.28 6.353 97.972c-2.47 4.152-4.873 8.281-5.878 14.355-.327 2.054-.983 6.336.219 11.624 0 0 1.31 5.703 5.156 10.946 3.365 4.633 13.525 10.685 27.814 13.722-19.227 18.66-28.775 43.655-16.146 80.362-.503-1.989-10.444-43.874 25.323-78.92 6.446.677 13.481.7 20.932-.24 10.728-1.333 21.019-4.458 30.436-8.74 2.425 15.338 12.716 25.563 30.742 27.333 22.832 2.273 39.765-25.935 39.765-25.935s4.501 56.11-31.594 82.044c-36.073 25.935-69.633-.284-69.633-.284l-5.353 4.807c44.834 27.05 99.523.83 111.65-43.982 12.126-44.835 21.98-79.51 21.98-79.51h-12.127s-32.686 77.237-59.67 55.54c-8.325-6.685-11.864-16.386-11.93-27.42 12.826-8.04 23.182-17.982 29.715-27.618C153.53 105.14 162.663 99 162.663 99c-3.627 1.049-14.093 1.508-21.653 1.726-.874.022-1.704.044-2.47.066a110.151 110.151 0 0 0 3.453-2.032 117.766 117.766 0 0 0 5.288-3.234c6.423.284 15.36.044 24.056-2.447l-1.268-4.872-16.823 3.32a165.526 165.526 0 0 0 7.21-5.287c.022 0 .022 0 .044-.022 6.074-.874 14.092-2.316 20.341-4.348v-4.654l-15.928 5.506c10.881-8.87 20.014-18.331 27.661-27.705l1.18 10.794s6.468 7.888 10.422-10.728c1.246-5.856-.022-9.723-2.36-12.28 5.2-2.512 10.4-7.384 11.93-8.848zm-119.8 93.864a54.946 54.946 0 0 0-.305 5.594c-13 7.953-29.3 14.245-47.654 13.7 11.646-10.51 27.64-20.255 49.51-27.946-.786 3.277-1.31 6.205-1.55 8.652zm15.164-5.746c.502-2.753 1.18-5.528 1.988-8.346 3.67-1.399 7.21-2.863 10.663-4.414-2.775 3.387-7.08 7.975-12.651 12.76zm19.074-26.285c-4.37 2.6-8.805 5.026-13.284 7.189 3.452-8.325 8.019-16.606 13.306-24.297 1.399 5.66 1.18 11.733-.022 17.108zm17.261-11.405c-.065-7.429-3.102-13.219-7.91-17.807a116.548 116.548 0 0 1 7.932-8.39c23.291-22.2 38.826-15.666 44.201-12.061-11.667 11.711-27.093 25.87-44.223 38.258z" fill="#c7d5db"/><path d="M141.993 98.759a41.18 41.18 0 0 1-.983 1.966c-.874.022-1.704.044-2.47.066a110.152 110.152 0 0 0 3.453-2.032z" fill="#020000"/><path d="M851.847 74.126c0-.567 0-.945.035-1.255h-5.329c.052.344.069.74.069 1.324v20.146l-.464.24c-3.111 1.668-5.535 2.287-8.921 2.287-10.916 0-17.43-8.08-17.43-21.59 0-14.8 6.549-23.292 17.98-23.292 3.833 0 8.027 1.118 11.207 2.991.395.241.877.55 1.427.911v-3.472c-4.848-1.822-8.182-2.458-12.91-2.458-14.61 0-23.686 9.42-23.686 24.564 0 14.954 8.405 24.237 21.916 24.237 4.452 0 9.78-.877 14.25-2.338l.172-.069a20.528 20.528 0 0 0 1.96-.636c-.224-.79-.276-1.495-.276-3.197V74.126zm16.966-23.411h-5.518c.052.309.086.687.086 1.185v44.985c0 .516-.017.877-.068 1.186h5.483c-.034-.292-.051-.67-.051-1.186V51.9c0-.498.017-.876.068-1.185zm46.22 1.185c0-.515 0-.876.018-1.185h-1.633c.051.309.068.687.068 1.185v40.997L884.66 52.399c-.602-.894-.86-1.29-1.083-1.684h-5.14c.052.309.069.67.069 1.185v44.985c0 .498-.034.877-.086 1.186h1.461c-.017-.31-.017-.67-.017-1.186v-41.96l29.497 41.461c.584.808.894 1.238 1.066 1.685h4.658a10.68 10.68 0 0 1-.052-1.186V51.9zm114.937.32c.677 0 1.311.022 2.01.087v-1.704l-85.125.044v.013l-.827.003h.827v.006h-7.385l-12.192.021-4.828.022c.065.284.065.677.065 1.18l-.109 44.988c0 .502 0 .874-.044 1.201h22.79v-1.966c-.635.065-1.203.065-2.011.065h-15.229V74.484h15.382c.677 0 1.267.044 1.857.11V73.13c-.699.109-1.289.152-1.923.152h-15.316V52.68l32.992.065-.065 44.136c0 .48-.022.874-.044 1.201h5.572c-.022-.327-.022-.677-.022-1.201V52.679l23.881.065-.087 44.136c0 .48 0 .874-.044 1.201h5.594c-.044-.327-.044-.677-.044-1.201V52.679h11.908c.808 0 1.332.021 1.813.065l-.153 44.136c0 .502 0 .874-.022 1.201h22.79v-1.966c-.634.065-1.202.065-2.01.065h-15.252V74.462h15.382c.721 0 1.29.044 1.88.11v-1.464c-.7.109-1.29.153-1.945.153h-15.317V52.22h15.251zM149.538 66.35c-1.993-1.3-4.505-2.686-7.538-4.159-10.484-4.853-12.998-7.365-12.998-12.737s4.593-9.619 10.658-9.619c3.206 0 7.105 1.04 10.225 2.773.606.433 1.646 1.04 2.86 1.907l1.906-5.979c-2.86-1.3-3.986-1.733-5.98-2.253-2.772-.693-5.458-1.04-8.231-1.04-11.957 0-20.19 6.932-20.19 16.897 0 5.286 2.513 9.791 7.453 13.083 2.08 1.387 4.505 2.773 7.365 4.247 8.145 3.899 10.398 5.372 12.044 7.798a11.4 11.4 0 0 1 1.82 6.152c0 6.5-5.2 11.351-12.305 11.351-2.599 0-5.979-.866-8.577-2.08-2.34-1.126-3.553-2.08-6.326-4.592l-1.906 6.845c3.033 1.647 4.419 2.34 6.758 3.033 3.206 1.04 6.759 1.646 10.225 1.646 12.304 0 20.795-7.625 20.795-18.543 0-6.151-2.859-11.438-8.058-14.73zm49.991 21.836V61.672c0-3.032-.607-5.546-1.473-6.845-2.513-3.379-7.711-5.546-13.43-5.546-4.333 0-9.358 1.04-13.604 2.773-.694.347-1.733.78-3.293 1.473l1.646 5.805c2.34-1.905 3.38-2.599 5.2-3.465 2.339-1.127 5.545-1.906 7.71-1.906 5.287 0 8.926 3.033 8.926 7.191 0 3.986-1.646 5.632-6.586 7.106l-8.405 2.426c-8.751 2.512-13.43 7.798-13.43 15.423 0 7.972 5.72 13.778 13.517 13.778 4.332 0 8.751-1.82 12.478-4.94.952-.953 1.56-1.56 2.773-3.12 0 .694-.087 1.127-.087 1.474 0 3.293 3.64 6.5 7.451 6.5 2.34 0 4.42-.78 6.846-2.514v-4.939c-1.213 1.04-2.513 1.646-3.466 1.646-1.82 0-2.773-1.82-2.773-5.805zm-8.232-6.76c0 7.106-5.199 12.652-11.61 12.652-4.94 0-8.579-3.9-8.579-9.185 0-5.545 2.6-8.405 9.618-11.09 3.9-1.474 6.585-2.513 7.885-3.034.693-.26 1.56-.78 2.686-1.646v12.304zm25.035-43.67c-3.9 0-5.805 1.213-5.805 3.9 0 2.34 1.906 3.725 4.852 3.725 3.986 0 5.893-1.213 5.893-3.726s-1.82-3.899-4.94-3.899zm4.246 12.565h-9.184c.259.78.346 1.299.346 2.598v43.238c0 1.473 0 1.82-.346 2.6h9.098c-.347-.78-.347-1.127-.347-2.6V52.92c0-1.385 0-1.732.433-2.598zm50.166 12.65c0-8.145-6.151-13.69-15.25-13.69-5.545 0-10.137 1.82-13.344 5.285-.779.78-1.125 1.473-1.993 2.946v-7.278l-8.577.087c.259.78.346 1.213.346 2.598v43.238c0 1.473-.087 1.82-.346 2.6h9.184c-.433-.866-.52-1.213-.52-2.6V66.611c0-6.325 5.286-11.265 12.045-11.265 6.325 0 9.965 3.38 9.965 9.445v31.367c0 1.56 0 1.82-.26 2.6h9.098c-.26-.866-.348-1.56-.348-2.6V62.972zm21.222-20.796c0-1.213.085-1.819.519-2.773l-8.838.954v9.878h-7.539v4.159h7.626v36.479c0 5.459 2.945 8.405 8.232 8.405 2.426 0 5.113-.52 8.145-1.733v-4.68c-1.56 1.04-2.947 1.474-4.334 1.474-2.599 0-3.81-1.387-3.81-4.68V54.395h8.231v-4.159h-8.232v-8.059zm54.847 30.414c-.172-14.557-8.057-23.395-20.795-23.395-13.517 0-22.095 9.964-22.095 25.388 0 16.203 8.49 25.215 24.003 25.215 4.852 0 9.79-.954 13.862-2.686.606-.347 1.56-.78 2.774-1.387l-1.474-5.718c-2.339 1.992-3.38 2.686-5.198 3.466-2.774 1.386-5.893 1.993-8.925 1.993-10.57 0-16.464-7.452-16.464-20.797 0-.433.088-1.039.088-2.079h34.224zm-20.968-19.236c7.018 0 11.352 5.633 11.958 15.423h-24.954c.779-9.531 5.804-15.423 12.996-15.423zm25.379 24.088h24.783l1.818-7.278h-24.608l-1.993 7.278zm82.314-10.225c0-1.56 0-1.819.346-2.685h-9.617c.346.953.434 1.386.434 2.773V92.26c-3.9 2.08-6.76 2.773-10.831 2.773-13.26 0-21.056-9.792-21.056-26.342 0-18.283 7.797-28.508 21.75-28.508 4.591 0 9.703 1.3 13.69 3.64.865.52 1.992 1.3 3.464 2.252v-7.191c-6.497-2.514-11.003-3.467-17.503-3.467-19.235 0-31.192 12.478-31.192 32.321 0 19.496 11.263 31.886 28.94 31.886 5.72 0 12.65-1.126 18.456-3.032.866-.26 2.08-.607 3.725-1.3-.518-1.386-.606-1.907-.606-4.68V67.218zm52.328 5.373c-.173-14.557-8.057-23.395-20.795-23.395-13.518 0-22.095 9.964-22.095 25.388 0 16.203 8.49 25.215 24.002 25.215 4.852 0 9.79-.954 13.863-2.686.606-.347 1.56-.78 2.774-1.387l-1.475-5.718c-2.338 1.992-3.38 2.686-5.197 3.466-2.774 1.386-5.894 1.993-8.926 1.993-10.57 0-16.464-7.452-16.464-20.797 0-.433.088-1.039.088-2.079h34.225zm-20.968-19.236c7.017 0 11.351 5.633 11.957 15.423h-24.954c.779-9.531 5.804-15.423 12.997-15.423zm68.53 9.618c0-8.145-6.151-13.69-15.25-13.69-5.545 0-10.139 1.82-13.343 5.285-.781.78-1.127 1.473-1.993 2.946v-7.278l-8.58.087c.26.78.348 1.213.348 2.598v43.238c0 1.473-.088 1.82-.348 2.6h9.186c-.434-.866-.521-1.213-.521-2.6V66.611c0-6.325 5.285-11.265 12.045-11.265 6.326 0 9.964 3.38 9.964 9.445v31.367c0 1.56 0 1.82-.26 2.6h9.098c-.26-.866-.345-1.56-.345-2.6V62.972zm52.328 9.618c-.173-14.557-8.057-23.395-20.795-23.395-13.518 0-22.095 9.964-22.095 25.388 0 16.203 8.49 25.215 24.002 25.215 4.852 0 9.79-.954 13.863-2.686.606-.347 1.56-.78 2.774-1.387l-1.475-5.718c-2.338 1.992-3.38 2.686-5.197 3.466-2.774 1.386-5.894 1.993-8.926 1.993-10.57 0-16.464-7.452-16.464-20.797 0-.433.088-1.039.088-2.079h34.225zm-20.968-19.236c7.018 0 11.351 5.633 11.957 15.423h-24.954c.78-9.531 5.804-15.423 12.997-15.423zm59.955-2.6c0 .52-.087 1.127-.435 2.166l-13.863 36.307-13.344-36.307c-.26-1.039-.433-1.646-.433-2.165v-.52h-9.792c.52.866.781 1.213 1.3 2.685l15.857 43.238c.52 1.127.606 1.647.606 2.167v.433h6.845v-.26c0-.606.173-1.127.608-2.34l16.29-43.238c.605-1.385.865-1.906 1.471-2.598h-5.11v.433zm13.944-12.997c-3.898 0-5.806 1.213-5.806 3.9 0 2.34 1.908 3.725 4.852 3.725 3.986 0 5.894-1.213 5.894-3.726s-1.82-3.899-4.94-3.899zm4.246 12.565h-9.186c.26.78.348 1.299.348 2.598v43.238c0 1.473 0 1.82-.348 2.6h9.099c-.346-.78-.346-1.127-.346-2.6V52.92c0-1.385 0-1.732.433-2.598zm34.308-3.9l-6.064-13.17h-7.538l9.704 13.17h3.898zm17.503 26.168c-.173-14.557-8.057-23.395-20.795-23.395-13.517 0-22.095 9.964-22.095 25.388 0 16.203 8.49 25.215 24.002 25.215 4.852 0 9.79-.954 13.863-2.686.606-.347 1.56-.78 2.774-1.387l-1.474-5.718c-2.339 1.992-3.38 2.686-5.198 3.466-2.774 1.386-5.893 1.993-8.925 1.993-10.57 0-16.464-7.452-16.464-20.797 0-.433.087-1.039.087-2.079h34.225zm-20.968-19.236c7.018 0 11.351 5.633 11.957 15.423H660.78c.778-9.531 5.803-15.423 12.996-15.423zm59.953-2.6c0 .52-.085 1.127-.433 2.166l-13.863 36.307L706.09 52.92c-.26-1.039-.433-1.646-.433-2.165v-.52h-9.792c.52.866.781 1.213 1.3 2.685l15.858 43.238c.52 1.127.606 1.647.606 2.167v.433h6.844v-.26c0-.606.173-1.127.609-2.34l16.288-43.238c.606-1.385.867-1.906 1.473-2.598h-5.113v.433zm49.818 21.836c-.172-14.557-8.057-23.395-20.795-23.395-13.517 0-22.095 9.964-22.095 25.388 0 16.203 8.49 25.215 24.003 25.215 4.852 0 9.79-.954 13.862-2.686.606-.347 1.56-.78 2.774-1.387l-1.474-5.718c-2.339 1.992-3.38 2.686-5.198 3.466-2.774 1.386-5.893 1.993-8.925 1.993-10.57 0-16.464-7.452-16.464-20.797 0-.433.088-1.039.088-2.079h34.224zM762.58 53.354c7.018 0 11.352 5.633 11.958 15.423h-24.954c.779-9.531 5.804-15.423 12.996-15.423z" fill="#444"/><path d="M390.955 131.151c0 8.66 4.455 13.58 12.367 13.58 2.067 0 3.92-.322 5.454-.998.284-.143.676-.286 1.175-.571v-3.137c-.927.963-1.39 1.355-2.21 1.783a8.323 8.323 0 0 1-3.848.962c-5.275 0-8.803-4.562-8.803-11.37 0-6.914 3.385-11.226 8.731-11.226 1.853 0 3.743.606 5.168 1.675.213.143.534.393.962.784v-3.172c-2.138-.855-3.635-1.175-5.88-1.175-8.268 0-13.116 4.775-13.116 12.865zm26.13-13.72h-3.779c.142.32.142.498.142 1.103v24.77c0 .57 0 .713-.142 1.07h3.778c-.143-.321-.178-.428-.178-1.07v-24.77c0-.57.035-.747.178-1.104zm18.427 22.594V129.12c0-1.247-.25-2.281-.606-2.816-1.034-1.39-3.172-2.28-5.524-2.28-1.783 0-3.85.427-5.596 1.14-.285.143-.712.321-1.354.606l.677 2.387c.962-.784 1.39-1.069 2.139-1.425.962-.463 2.28-.784 3.172-.784 2.174 0 3.67 1.247 3.67 2.958 0 1.64-.677 2.317-2.708 2.923l-3.458.997c-3.6 1.034-5.524 3.208-5.524 6.345 0 3.278 2.352 5.666 5.56 5.666 1.782 0 3.6-.748 5.132-2.032.393-.391.642-.64 1.14-1.282 0 .285-.035.463-.035.605 0 1.355 1.497 2.674 3.065 2.674.963 0 1.818-.322 2.816-1.034v-2.032c-.5.428-1.034.678-1.425.678-.75 0-1.14-.749-1.14-2.389zm-3.386-2.779c0 2.922-2.138 5.203-4.775 5.203-2.033 0-3.53-1.603-3.53-3.778 0-2.28 1.07-3.456 3.956-4.562a214.797 214.797 0 0 0 3.244-1.247c.286-.106.642-.32 1.105-.677v5.061zm14.866-4.705c-2.638-1.034-3.315-1.461-3.815-2.21-.25-.356-.391-.855-.391-1.354 0-1.889 1.639-3.242 3.884-3.242.82 0 1.89.213 2.816.605.749.356 1.14.57 2.067 1.283l.57-2.281c-2.245-.997-3.884-1.354-5.844-1.354-4.028 0-6.88 2.352-6.88 5.703 0 1.71.785 3.313 2.104 4.205.784.498 1.746.998 2.886 1.46 3.921 1.534 4.847 2.353 4.847 4.1 0 2.03-1.675 3.528-4.027 3.528-.963 0-2.245-.322-3.243-.713-.926-.428-1.426-.784-2.495-1.71l-.641 2.53c1.247.677 1.747.891 2.673 1.176 1.14.32 2.387.535 3.67.535 4.527 0 7.45-2.46 7.45-6.309 0-2.78-1.462-4.312-5.631-5.952zm15.863 0c-2.638-1.034-3.315-1.461-3.814-2.21-.25-.356-.392-.855-.392-1.354 0-1.889 1.64-3.242 3.885-3.242.819 0 1.889.213 2.815.605.749.356 1.14.57 2.068 1.283l.57-2.281c-2.245-.997-3.885-1.354-5.845-1.354-4.027 0-6.88 2.352-6.88 5.703 0 1.71.785 3.313 2.104 4.205.784.498 1.746.998 2.887 1.46 3.92 1.534 4.846 2.353 4.846 4.1 0 2.03-1.675 3.528-4.027 3.528-.962 0-2.245-.322-3.243-.713-.926-.428-1.426-.784-2.495-1.71l-.64 2.53c1.246.677 1.746.891 2.672 1.176 1.14.32 2.387.535 3.67.535 4.527 0 7.45-2.46 7.45-6.309 0-2.78-1.462-4.312-5.631-5.952zm26.056 1.07c-.072-5.988-3.315-9.623-8.554-9.623-5.56 0-9.088 4.098-9.088 10.443 0 6.664 3.493 10.37 9.872 10.37 1.996 0 4.027-.392 5.702-1.105.25-.142.642-.32 1.14-.57l-.605-2.352c-.962.82-1.39 1.105-2.138 1.425-1.141.571-2.424.82-3.672.82-4.347 0-6.77-3.064-6.77-8.553 0-.178.034-.428.034-.856h14.079zm-8.625-7.913c2.887 0 4.669 2.318 4.918 6.344H474.94c.32-3.92 2.388-6.344 5.346-6.344zm18.68 6.843c-2.638-1.034-3.315-1.461-3.814-2.21-.25-.356-.392-.855-.392-1.354 0-1.889 1.64-3.242 3.885-3.242.819 0 1.889.213 2.815.605.749.356 1.14.57 2.068 1.283l.57-2.281c-2.245-.997-3.885-1.354-5.845-1.354-4.027 0-6.879 2.352-6.879 5.703 0 1.71.784 3.313 2.103 4.205.784.498 1.746.998 2.887 1.46 3.92 1.534 4.846 2.353 4.846 4.1 0 2.03-1.675 3.528-4.027 3.528-.962 0-2.245-.322-3.243-.713-.926-.428-1.426-.784-2.495-1.71l-.64 2.53c1.246.677 1.746.891 2.672 1.176 1.14.32 2.387.535 3.67.535 4.527 0 7.45-2.46 7.45-6.309 0-2.78-1.462-4.312-5.631-5.952zm33.613-6.843c-1.248-1.069-2.78-1.64-4.348-1.64-1.854 0-4.063 1-5.24 2.39-.214.284-.464.676-.784 1.14v-3.173l-3.528.036c.107.285.142.5.142 1.07v23.806c0 .642 0 .82-.142 1.14h3.778c-.18-.356-.213-.498-.213-1.14v-7.234c1.495 1.96 3.027 2.709 5.451 2.709 4.848 0 7.842-4.063 7.842-10.55 0-4.17-.926-6.807-2.958-8.554zm-5.596 17.214c-1.14 0-2.281-.428-3.064-1.21-.963-.928-1.569-2.14-1.641-3.458-.034-.606-.07-1.96-.07-4.028 0-1.71.036-2.815.106-3.35.32-2.494 2.601-4.597 4.954-4.597 3.03 0 4.669 2.744 4.669 7.84 0 5.81-1.711 8.803-4.954 8.803zm15.757-15.61v-2.887l-3.493.036c.107.321.143.535.143 1.07v17.784c0 .57 0 .748-.143 1.069h3.743c-.143-.321-.177-.535-.177-1.07v-11.938c0-2.816 1.638-4.527 4.346-4.527.18 0 .322 0 .642.036v-2.816c-2.85.036-4.276.962-5.06 3.243zm18.536-9.908h-3.03l-2.637 5.454h1.71l3.957-5.454zm4.845 16.216c-.07-5.987-3.313-9.622-8.552-9.622-5.56 0-9.09 4.098-9.09 10.443 0 6.664 3.494 10.37 9.873 10.37 1.998 0 4.029-.392 5.704-1.105.25-.142.64-.32 1.14-.57l-.607-2.352c-.962.82-1.389 1.105-2.138 1.425-1.139.571-2.424.82-3.67.82-4.348 0-6.772-3.064-6.772-8.553 0-.178.036-.428.036-.856h14.076zm-8.624-7.912c2.887 0 4.668 2.318 4.918 6.344h-10.263c.32-3.92 2.388-6.344 5.345-6.344zm25.986 0c-1.248-1.069-2.78-1.64-4.348-1.64-1.854 0-4.063 1-5.24 2.39-.214.284-.464.676-.784 1.14v-3.173l-3.529.036c.107.285.143.5.143 1.07v23.806c0 .642 0 .82-.143 1.14h3.78c-.18-.356-.214-.498-.214-1.14v-7.234c1.495 1.96 3.027 2.709 5.451 2.709 4.848 0 7.842-4.063 7.842-10.55 0-4.17-.926-6.807-2.958-8.554zm-5.596 17.214c-1.14 0-2.281-.428-3.064-1.21-.963-.928-1.569-2.14-1.641-3.458-.034-.606-.07-1.96-.07-4.028 0-1.71.036-2.815.106-3.35.32-2.494 2.601-4.597 4.955-4.597 3.03 0 4.668 2.744 4.668 7.84 0 5.81-1.711 8.803-4.954 8.803zm26.13-2.887V129.12c0-1.247-.25-2.281-.607-2.816-1.035-1.39-3.173-2.28-5.524-2.28-1.782 0-3.85.427-5.597 1.14-.284.143-.712.321-1.352.606l.676 2.387c.962-.784 1.391-1.069 2.138-1.425.962-.463 2.28-.784 3.173-.784 2.174 0 3.67 1.247 3.67 2.958 0 1.64-.677 2.317-2.708 2.923l-3.457.997c-3.6 1.034-5.524 3.208-5.524 6.345 0 3.278 2.352 5.666 5.559 5.666 1.783 0 3.6-.748 5.133-2.032.39-.391.64-.64 1.14-1.282 0 .285-.037.463-.037.605 0 1.355 1.498 2.674 3.067 2.674.962 0 1.817-.322 2.814-1.034v-2.032c-.497.428-1.033.678-1.425.678-.747 0-1.14-.749-1.14-2.389zm-3.387-2.779c0 2.922-2.138 5.203-4.775 5.203-2.032 0-3.53-1.603-3.53-3.778 0-2.28 1.07-3.456 3.956-4.562 1.605-.606 2.71-1.033 3.244-1.247.286-.106.642-.32 1.105-.677v5.061zm11.765-9.944v-2.887l-3.493.036c.107.321.143.535.143 1.07v17.784c0 .57 0 .748-.143 1.069h3.743c-.143-.321-.177-.535-.177-1.07v-11.938c0-2.816 1.639-4.527 4.346-4.527.18 0 .322 0 .643.036v-2.816c-2.851.036-4.276.962-5.062 3.243zm20.39 12.723V129.12c0-1.247-.25-2.281-.606-2.816-1.035-1.39-3.173-2.28-5.524-2.28-1.782 0-3.85.427-5.597 1.14-.284.143-.712.321-1.353.606l.677 2.387c.962-.784 1.391-1.069 2.138-1.425.962-.463 2.28-.784 3.173-.784 2.174 0 3.67 1.247 3.67 2.958 0 1.64-.677 2.317-2.708 2.923l-3.457.997c-3.6 1.034-5.524 3.208-5.524 6.345 0 3.278 2.352 5.666 5.558 5.666 1.784 0 3.6-.748 5.134-2.032.39-.391.64-.64 1.14-1.282 0 .285-.037.463-.037.605 0 1.355 1.498 2.674 3.067 2.674.962 0 1.817-.322 2.814-1.034v-2.032c-.497.428-1.033.678-1.425.678-.747 0-1.14-.749-1.14-2.389zm-3.386-2.779c0 2.922-2.138 5.203-4.775 5.203-2.032 0-3.53-1.603-3.53-3.778 0-2.28 1.07-3.456 3.956-4.562a210.37 210.37 0 0 0 3.244-1.247c.286-.106.642-.32 1.105-.677v5.061zm12.262-16.145c0-.499.037-.749.214-1.14l-3.634.391v4.063h-3.102v1.711h3.136v15.004c0 2.246 1.212 3.457 3.386 3.457.999 0 2.104-.213 3.35-.713v-1.924c-.642.428-1.212.606-1.781.606-1.07 0-1.569-.57-1.569-1.925v-14.505h3.387v-1.711h-3.387V121.1zm13.87 2.922c-5.56 0-9.09 4.063-9.09 10.336 0 6.272 3.565 10.371 9.09 10.371 5.488 0 9.123-4.099 9.123-10.121 0-6.523-3.456-10.586-9.123-10.586zm.07 19.21c-3.386 0-5.452-3.35-5.488-8.874 0-5.382 2.102-8.839 5.381-8.839 3.387 0 5.454 3.386 5.454 8.84 0 5.417-2.067 8.873-5.347 8.873zm16.577-18.782h-3.779c.107.321.143.535.143 1.07v17.784c0 .606 0 .748-.143 1.069h3.743c-.143-.321-.143-.463-.143-1.07V125.52c0-.57 0-.712.179-1.069zm-1.748-5.168c-1.602 0-2.387.5-2.387 1.604 0 .962.785 1.533 1.997 1.533 1.639 0 2.422-.5 2.422-1.533 0-1.034-.747-1.604-2.032-1.604zm9.769 8.019v-2.887l-3.493.036c.106.321.143.535.143 1.07v17.784c0 .57 0 .748-.143 1.069h3.742c-.143-.321-.177-.535-.177-1.07v-11.938c0-2.816 1.639-4.527 4.346-4.527.18 0 .323 0 .643.036v-2.816c-2.85.036-4.276.962-5.061 3.243zm23.38 6.308c-.07-5.987-3.313-9.622-8.551-9.622-5.56 0-9.09 4.098-9.09 10.443 0 6.664 3.493 10.37 9.873 10.37 1.997 0 4.028-.392 5.703-1.105.25-.142.64-.32 1.14-.57l-.606-2.352c-.962.82-1.39 1.105-2.138 1.425-1.14.571-2.424.82-3.67.82-4.349 0-6.773-3.064-6.773-8.553 0-.178.037-.428.037-.856h14.076zm-8.624-7.912c2.887 0 4.669 2.318 4.919 6.344H689.61c.32-3.92 2.388-6.344 5.345-6.344zm18.679 6.843c-2.637-1.034-3.314-1.461-3.813-2.21-.25-.356-.393-.855-.393-1.354 0-1.889 1.641-3.242 3.886-3.242.82 0 1.888.213 2.816.605.747.356 1.14.57 2.066 1.283l.572-2.281c-2.247-.997-3.886-1.354-5.847-1.354-4.026 0-6.877 2.352-6.877 5.703 0 1.71.783 3.313 2.102 4.205.785.498 1.747.998 2.887 1.46 3.92 1.534 4.848 2.353 4.848 4.1 0 2.03-1.675 3.528-4.029 3.528-.962 0-2.244-.322-3.243-.713-.926-.428-1.425-.784-2.494-1.71l-.643 2.53c1.249.677 1.748.891 2.674 1.176 1.142.32 2.388.535 3.672.535 4.526 0 7.447-2.46 7.447-6.309 0-2.78-1.46-4.312-5.631-5.952zm33.578 7.484V129.12c0-1.247-.25-2.281-.606-2.816-1.035-1.39-3.173-2.28-5.524-2.28-1.782 0-3.85.427-5.597 1.14-.283.143-.712.321-1.352.606l.676 2.387c.962-.784 1.391-1.069 2.138-1.425.962-.463 2.28-.784 3.173-.784 2.174 0 3.67 1.247 3.67 2.958 0 1.64-.677 2.317-2.708 2.923l-3.457.997c-3.6 1.034-5.524 3.208-5.524 6.345 0 3.278 2.352 5.666 5.559 5.666 1.783 0 3.6-.748 5.133-2.032.39-.391.64-.64 1.14-1.282 0 .285-.037.463-.037.605 0 1.355 1.498 2.674 3.067 2.674.962 0 1.818-.322 2.814-1.034v-2.032c-.497.428-1.033.678-1.425.678-.747 0-1.14-.749-1.14-2.389zm-3.386-2.779c0 2.922-2.138 5.203-4.775 5.203-2.032 0-3.53-1.603-3.53-3.778 0-2.28 1.07-3.456 3.957-4.562 1.604-.606 2.71-1.033 3.243-1.247.286-.106.642-.32 1.105-.677v5.061zm24.346-11.69c0-.642.036-.784.109-1.07l-3.709-.035c.107.357.143.606.143 1.105v11.476c0 1.14-.177 2.102-.57 2.745-.819 1.567-2.53 2.565-4.312 2.565-1.781 0-3.386-.962-3.885-2.317-.214-.498-.284-1.175-.284-2.459V125.52c0-.5.034-.712.177-1.069l-3.742.035c.072.286.106.535.106 1.07v12.83c0 1.248.143 2.175.429 2.816.89 2.21 3.243 3.671 5.88 3.671 1.925 0 3.957-.82 5.275-2.068.356-.356.606-.677.999-1.39v2.959h3.527c-.107-.321-.143-.5-.143-1.07v-17.748zm12.124 7.876l5.417-7.912c.32-.57.57-.784.82-1.069h-2.211c-.034.357-.143.463-.5 1.07l-4.418 6.343-3.884-6.344c-.356-.57-.429-.748-.499-1.069h-4.278c.143.143.215.178.25.25.106.142.286.356.535.82l5.418 9.016-5.917 8.768c-.286.391-.463.677-.642.855-.07.036-.141.107-.25.214h2.174c.143-.392.216-.5.642-1.07l4.919-7.163 4.348 7.164c.393.57.427.712.463 1.069h4.349c-.25-.285-.463-.5-.785-1.07l-5.951-9.872zm28.48 9.23c-1.674 0-3.706.286-5.417.678-.32.071-.856.214-1.602.428l3.633-2.103c.357-.213.643-.285 1.035-.321l1.639-.214c5.131-.499 8.055-3.67 8.055-8.695 0-3.672-1.498-6.13-4.669-7.699.926-.463 1.282-.713 1.782-1.247.749-.713.962-1.284 1.318-2.674h-3.35c-.106.963-.213 1.355-.57 1.961-.356.57-.678.82-1.46 1.319-.68-.036-.963-.072-1.356-.072-5.95 0-9.41 3.208-9.41 8.625 0 3.85 1.428 6.344 4.422 7.663l-4.422 3.172.856 2.672c1.462-.57 2.068-.784 3.1-1.032a17.464 17.464 0 0 1 4.029-.464c3.636 0 6.13.962 6.13 2.387 0 1.533-2.245 2.496-5.738 2.496-1.354 0-2.923-.107-4.278-.357-1.105-.178-1.781-.356-3.386-.82l-.034.749c.82.32 1.176.428 1.745.57 2.495.784 5.275 1.176 7.771 1.176 5.096 0 8.269-1.568 8.269-4.062 0-2.567-3.03-4.136-8.092-4.136zm-6.663-10.05c0-4.312 1.852-6.735 5.168-6.735 3.134 0 5.025 2.602 5.025 6.807 0 4.206-1.925 6.736-5.168 6.736-3.316 0-5.025-2.317-5.025-6.807zm21.139-5.31v-2.887l-3.493.036c.106.321.143.535.143 1.07v17.784c0 .57 0 .748-.143 1.069h3.742c-.143-.321-.177-.535-.177-1.07v-11.938c0-2.816 1.639-4.527 4.347-4.527.179 0 .322 0 .642.036v-2.816c-2.85.036-4.276.962-5.061 3.243zm20.387 12.723V129.12c0-1.247-.25-2.281-.606-2.816-1.035-1.39-3.172-2.28-5.524-2.28-1.782 0-3.85.427-5.597 1.14-.283.143-.712.321-1.352.606l.676 2.387c.962-.784 1.391-1.069 2.138-1.425.962-.463 2.281-.784 3.173-.784 2.174 0 3.67 1.247 3.67 2.958 0 1.64-.677 2.317-2.708 2.923l-3.456.997c-3.6 1.034-5.525 3.208-5.525 6.345 0 3.278 2.352 5.666 5.559 5.666 1.783 0 3.6-.748 5.133-2.032.39-.391.64-.64 1.14-1.282 0 .285-.036.463-.036.605 0 1.355 1.497 2.674 3.066 2.674.962 0 1.818-.322 2.814-1.034v-2.032c-.497.428-1.033.678-1.425.678-.747 0-1.14-.749-1.14-2.389zm-3.386-2.779c0 2.922-2.138 5.203-4.775 5.203-2.031 0-3.53-1.603-3.53-3.778 0-2.28 1.07-3.456 3.957-4.562 1.604-.606 2.71-1.033 3.243-1.247.286-.106.642-.32 1.105-.677v5.061zm24.382-7.592c0-3.35-2.53-5.63-6.273-5.63-2.28 0-4.17.748-5.488 2.174-.32.32-.463.606-.82 1.212v-2.995l-3.528.036c.106.321.143.5.143 1.07v17.784c0 .606-.037.748-.143 1.069h3.778c-.179-.357-.213-.5-.213-1.07v-12.153c0-2.6 2.174-4.633 4.952-4.633 2.603 0 4.1 1.39 4.1 3.885v12.902c0 .64 0 .748-.107 1.069h3.742a3.381 3.381 0 0 1-.143-1.07v-13.65zm20.676-12.224h-3.779c.18.357.18.5.18 1.104v8.162c-.68-.926-1.072-1.354-1.605-1.675-1.07-.641-2.352-.962-3.636-.962-5.095 0-7.948 3.67-7.948 10.3 0 6.665 2.567 10.371 7.235 10.371 1.997 0 4.029-.856 5.098-2.174.25-.25.57-.677.89-1.212v3.03h3.529c-.073-.357-.107-.463-.107-1.07v-24.77c0-.57.034-.783.143-1.104zm-3.636 20.6c-.393 2.46-2.53 4.42-4.775 4.42-3.173 0-4.741-2.638-4.741-7.878 0-5.666 1.675-8.66 4.954-8.66 2.424 0 4.419 1.89 4.49 4.277l.179 4.205c.036.357.036.75.036 1.106 0 .997-.073 1.853-.143 2.53zm25.024-4.42c-.07-5.987-3.313-9.622-8.552-9.622-5.56 0-9.09 4.098-9.09 10.443 0 6.664 3.494 10.37 9.873 10.37 1.998 0 4.029-.392 5.704-1.105.25-.142.64-.32 1.14-.57l-.607-2.352c-.962.82-1.389 1.105-2.138 1.425-1.14.571-2.424.82-3.67.82-4.348 0-6.772-3.064-6.772-8.553 0-.178.036-.428.036-.856H906.7zm-8.624-7.912c2.887 0 4.668 2.318 4.918 6.344H892.73c.32-3.92 2.387-6.344 5.345-6.344zm18.678 6.843c-2.637-1.034-3.313-1.461-3.813-2.21-.25-.356-.392-.855-.392-1.354 0-1.889 1.64-3.242 3.885-3.242.82 0 1.889.213 2.817.605.747.356 1.14.57 2.065 1.283l.572-2.281c-2.247-.997-3.885-1.354-5.846-1.354-4.027 0-6.877 2.352-6.877 5.703 0 1.71.783 3.313 2.101 4.205.786.498 1.748.998 2.887 1.46 3.92 1.534 4.848 2.353 4.848 4.1 0 2.03-1.675 3.528-4.028 3.528-.963 0-2.245-.322-3.244-.713-.926-.428-1.425-.784-2.494-1.71l-.642 2.53c1.248.677 1.747.891 2.673 1.176 1.142.32 2.388.535 3.673.535 4.525 0 7.446-2.46 7.446-6.309 0-2.78-1.46-4.312-5.63-5.952zm31.654-15.147h-3.03l-2.637 5.454h1.711l3.956-5.454zm4.846 16.216c-.07-5.987-3.314-9.622-8.552-9.622-5.56 0-9.09 4.098-9.09 10.443 0 6.664 3.493 10.37 9.873 10.37 1.997 0 4.028-.392 5.703-1.105.25-.142.64-.32 1.14-.57l-.606-2.352c-.963.82-1.39 1.105-2.138 1.425-1.14.571-2.424.82-3.67.82-4.349 0-6.773-3.064-6.773-8.553 0-.178.037-.428.037-.856h14.076zm-8.625-7.912c2.887 0 4.669 2.318 4.919 6.344h-10.264c.32-3.92 2.388-6.344 5.345-6.344zm11.198 8.874c0 6.558 3.207 10.23 8.802 10.23 2.28 0 3.635-.357 5.63-1.462v-2.601c-.853.855-1.246 1.176-2.03 1.567a6.636 6.636 0 0 1-2.958.678c-3.563 0-5.701-3.244-5.701-8.518 0-5.31 2.35-8.768 5.987-8.768 1.318 0 2.707.463 3.813 1.177.213.178.499.392.89.748v-2.744c-1.816-.606-3.064-.856-4.846-.856-5.917 0-9.587 4.028-9.587 10.55zm25.558-10.549c-5.56 0-9.09 4.063-9.09 10.336 0 6.272 3.565 10.371 9.09 10.371 5.488 0 9.124-4.099 9.124-10.121 0-6.523-3.457-10.586-9.124-10.586zm.07 19.21c-3.386 0-5.451-3.35-5.488-8.874 0-5.382 2.102-8.839 5.381-8.839 3.387 0 5.454 3.386 5.454 8.84 0 5.417-2.067 8.873-5.347 8.873zm16.577-25.803h-3.779c.143.321.143.5.143 1.104v24.77c0 .57 0 .713-.143 1.07h3.779c-.143-.321-.18-.428-.18-1.07v-24.77c0-.57.037-.747.18-1.104zm21.348 16.18c-.07-5.987-3.314-9.622-8.552-9.622-5.56 0-9.09 4.098-9.09 10.443 0 6.664 3.493 10.37 9.873 10.37 1.997 0 4.028-.392 5.703-1.105.25-.142.64-.32 1.14-.57l-.606-2.352c-.962.82-1.39 1.105-2.138 1.425-1.14.571-2.424.82-3.67.82-4.349 0-6.773-3.064-6.773-8.553 0-.178.037-.428.037-.856h14.076zm-8.625-7.912c2.887 0 4.669 2.318 4.919 6.344h-10.264c.32-3.92 2.388-6.344 5.345-6.344zm18.681 6.843c-2.637-1.034-3.314-1.461-3.813-2.21-.25-.356-.393-.855-.393-1.354 0-1.889 1.641-3.242 3.886-3.242.82 0 1.888.213 2.817.605.746.356 1.139.57 2.065 1.283l.572-2.281c-2.247-.997-3.886-1.354-5.847-1.354-4.026 0-6.877 2.352-6.877 5.703 0 1.71.784 3.313 2.102 4.205a18.19 18.19 0 0 0 2.887 1.46c3.92 1.534 4.848 2.353 4.848 4.1 0 2.03-1.675 3.528-4.029 3.528-.962 0-2.244-.322-3.243-.713-.926-.428-1.425-.784-2.494-1.71l-.642 2.53c1.248.677 1.747.891 2.673 1.176 1.142.32 2.388.535 3.672.535 4.526 0 7.447-2.46 7.447-6.309 0-2.78-1.46-4.312-5.63-5.952z" fill="#006b98"/></svg>