<?xml version="1.0" encoding="utf-8"?>
<!-- Generator: Adobe Illustrator 23.0.5, SVG Export Plug-In . SVG Version: 6.00 Build 0)  -->
<svg version="1.1" id="Calque_1" xmlns="http://www.w3.org/2000/svg" xmlns:xlink="http://www.w3.org/1999/xlink" x="0px" y="0px"
	 viewBox="0 0 1080 1080" style="enable-background:new 0 0 1080 1080;" xml:space="preserve">
<style type="text/css">
	.st0{fill:#B7807B;stroke:#000000;stroke-width:1.8831;stroke-miterlimit:10;}
</style>
<g>
	<path class="st0" d="M555.7,67c17.4,3.2,35.2,5,52.2,9.8c60.6,17,108.1,52.3,142.6,104.9c35.7,54.5,45.4,114.7,38.3,178.5
		c-8.4,75.7-32.7,146.5-64.3,215.2c-47.6,103.6-108.9,198.7-179.1,288.3c-1.6,2-3.3,3.8-5.6,6.4c-3.6-4.5-7-8.4-10.1-12.5
		c-71.4-92.3-133.7-190.2-181-297.1c-28.4-64.3-50.1-130.6-57.6-201c-5.8-54.8,0.1-107.5,26.1-156.8c29.2-55.3,73-94.8,131-118.1
		c23.2-9.3,47.3-14.8,72.2-16.5c1.3-0.1,2.5-0.7,3.7-1C534.7,67,545.2,67,555.7,67z M539.9,167.4c-83,0-150.8,67.9-150.6,150.8
		c0.2,82.8,67.5,150.1,150.2,150.4c82.9,0.3,150.8-67.4,151-150.4C690.7,235.3,622.9,167.4,539.9,167.4z"/>
</g>
<g>
	<path d="M598.3,213.9c25.6,0.1,46.4,19.6,48.4,45.2c1.9,24.8-16,47.4-40.7,51.4c-6.6,1.1-13.3,1.8-19.7,3.5
		c-8.1,2.2-15,6.7-21.1,12.5c-4,3.9-7,3.8-10.9-0.1c-6.9-6.9-13.8-13.8-20.7-20.7c-4.1-4.1-4.2-6.9-0.1-11c9.8-9.9,14.9-22,16-35.8
		C551.6,233.4,572.7,213.8,598.3,213.9z"/>
	<path d="M613.6,363.4c0,8.7-2.3,16.1-9.5,20.9c-5.6,3.8-12,4.5-18.5,3.8c-12.1-1.3-23.1-6-33.4-12.1c-31.3-18.5-55.7-43.5-72-76.1
		c-4.8-9.5-8.1-19.6-7.7-30.5c0.4-11.6,7.3-20,18.4-21.8c4-0.6,8.2-0.6,12.2,0c12,1.6,22.6,6.9,33,12.8c1.4,0.8,1.2,1.8,1,3
		c-1.7,9.2-5.8,17-12.5,23.6c-2.7,2.6-4.6,5.7-5.4,9.5c-1.3,6.2,0.2,11.8,4.7,16.3c7.8,8,15.7,15.9,23.7,23.7c7.2,7,17.9,7,25.1,0
		c7.1-6.9,15.4-11.3,25.2-12.8c1.3-0.2,2,0,2.7,1.2c5.9,10.3,11,20.9,12.8,32.7c0.1,0.6,0.2,1.2,0.3,1.9
		C613.4,360.9,613.5,362.4,613.6,363.4z"/>
	<path d="M466.6,300.4c3.7,6.9,7.3,13.8,11.1,20.9c-12.1,9.5-18.5,21.9-18,37.6c0.4,11.8,5.1,21.8,13.5,30
		c18.2,17.7,50,16.5,66.2-5.9c6.9,3.7,13.8,7.4,21,11.2c-4.7,8.2-11.1,15.1-18.9,20.6c-13.1,9.4-27.9,13.6-44,12.6
		c-32.2-2-58.7-26.3-63.5-57.3C428.9,337.5,447.4,310.6,466.6,300.4z"/>
</g>
</svg>
