<?xml version="1.0" encoding="utf-8"?>
<!-- Generator: Adobe Illustrator 23.0.5, SVG Export Plug-In . SVG Version: 6.00 Build 0)  -->
<svg version="1.1" id="Calque_1" xmlns="http://www.w3.org/2000/svg" xmlns:xlink="http://www.w3.org/1999/xlink" x="0px" y="0px"
	 viewBox="0 0 1080 1080" style="enable-background:new 0 0 1080 1080;" xml:space="preserve">
<style type="text/css">
	.st0{fill:#CEFDFF;stroke:#000000;stroke-width:1.8831;stroke-miterlimit:10;}
	.st1{fill:#FFFFFF;}
</style>
<g>
	<path class="st0" d="M555.7,67c17.4,3.2,35.2,5,52.2,9.8c60.6,17,108.1,52.3,142.6,104.9c35.7,54.5,45.4,114.7,38.3,178.5
		c-8.4,75.7-32.7,146.5-64.3,215.2c-47.6,103.6-108.9,198.7-179.1,288.3c-1.6,2-3.3,3.8-5.6,6.4c-3.6-4.5-7-8.4-10.1-12.5
		c-71.4-92.3-133.7-190.2-181-297.1c-28.4-64.3-50.1-130.6-57.6-201c-5.8-54.8,0.1-107.5,26.1-156.8c29.2-55.3,73-94.8,131-118.1
		c23.2-9.3,47.3-14.8,72.2-16.5c1.3-0.1,2.5-0.7,3.7-1C534.7,67,545.2,67,555.7,67z M539.9,167.4c-83,0-150.8,67.9-150.6,150.8
		c0.2,82.8,67.5,150.1,150.2,150.4c82.9,0.3,150.8-67.4,151-150.4C690.7,235.3,622.9,167.4,539.9,167.4z"/>
</g>
<g>
	<path d="M435.6,298.7c0-21.9,0-43.9,0-65.8c0-12.7,7.6-20.3,20.2-20.3c19.9,0,39.7,0,59.6,0c11.5,0,18.6,6,20.1,17.4
		c2.2,16.9,4.2,33.9,6.3,50.8c2.4,19.4,4.8,38.8,7.2,58.2c1.6,12.9,3.1,25.8,4.8,38.7c0.4,2.9-0.9,4.9-2.8,6.7
		c-0.5,0.4-1.4,0.6-2.1,0.6c-31.6,0-63.1,0.1-94.7,0c-11.1,0-18.7-8-18.8-19.1C435.6,343.5,435.6,321.1,435.6,298.7z M499.7,305.6
		c1.3,6.4,2.5,12.6,3.8,18.8c0.8,3.9,3.9,6.2,7.2,5.5c3.6-0.8,5.6-3.8,4.8-7.9c-4-20-7.9-40-12-59.9c-0.8-3.7-3-5.5-6.9-5.5
		c-3.2-0.1-6.3,0-9.5,0c-6.3,0-7.8,1.3-9,7.4c-2.3,11.6-4.6,23.2-6.9,34.8c-1.6,8-3.2,16-4.8,24c-0.6,3.4,1.4,6.3,4.7,7.1
		c3,0.8,6.1-1.1,7.1-4.4c0.3-1.1,0.5-2.2,0.8-3.4c1.1-5.5,2.2-11,3.3-16.5C488.2,305.6,493.8,305.6,499.7,305.6z"/>
	<path d="M534.7,421.9c8-9.2,15.6-17.9,23.2-26.5c1.5-1.7,2.9-3.4,4.3-5.1c3.3-4.2,4.3-9.1,3.7-14.4c-4.3-35.3-8.7-70.6-13.1-105.8
		c-0.7-5.7-1.5-11.4-2.2-17.2c-0.1-0.9-0.2-1.8-0.3-3c1.1,0,2,0,2.9,0c23.6,0,47.3,0.2,70.9-0.1c12.9-0.2,20.7,9.4,20.6,20.6
		c-0.2,43.8-0.1,87.6-0.1,131.4c0,12.5-7.6,20.1-20.2,20.1c-28.9,0-57.9,0-86.8,0C537,421.9,536.2,421.9,534.7,421.9z M610,344.7
		c0.8-1,1.3-1.9,1.9-2.6c5.2-6.7,9.3-13.9,12-22c0.6-1.7,1.3-2.4,3.2-2.5c3.2-0.2,5.4-2.9,5.4-6.1c-0.1-3.1-2.3-5.5-5.4-5.9
		c-1-0.1-2-0.1-3-0.1c-5.4,0-10.8,0-16.5,0c0-2,0-3.8,0-5.6c-0.1-3.9-2.7-6.7-6.1-6.7c-3.5,0-6,2.8-6,6.8c0,1.8,0,3.6,0,5.5
		c-6.3,0-12.2,0-18.1,0c-3.7,0-6.3,2.5-6.3,5.9c-0.1,3.4,2.3,5.9,5.9,6.1c1.5,0.1,2,0.8,2.6,2c3,6.4,6.1,12.7,9.3,19
		c1.1,2.1,2.8,3.9,4.3,5.9c-0.6,0.6-1.2,1.1-1.8,1.6c-4,3.3-8,6.5-11.9,9.8c-2.5,2.1-2.9,5.1-1.4,7.7c1.5,2.5,4.4,3.7,7.1,2.7
		c1-0.3,1.9-1,2.7-1.7c4.6-3.7,9.2-7.4,13.8-11.2c0.4,0.3,0.8,0.6,1.2,0.9c4.4,3.5,8.7,7,13.2,10.5c3.3,2.6,7,2.3,9.2-0.5
		c2.2-2.9,1.6-6.5-1.7-9.1c-1.4-1.1-2.9-2.2-4.4-3.4C616.1,349.5,613.1,347.1,610,344.7z"/>
	<path d="M539.3,397.6c-2.2,2.5-4.1,4.6-6.1,6.7c-4.3,4.8-8.7,9.5-13,14.4c-1,1.2-1.9,1.3-3.1,0.5c-4.3-2.8-7.4-6.6-8.5-11.6
		c-0.7-3.2-0.9-6.5-1.4-9.9C517.8,397.6,528.3,397.6,539.3,397.6z"/>
	<path class="st1" d="M499.7,305.6c-5.8,0-11.5,0-17.4,0c-1.1,5.5-2.2,11-3.3,16.5c-0.2,1.1-0.4,2.3-0.8,3.4c-1,3.2-4.1,5.1-7.1,4.4
		c-3.3-0.8-5.3-3.7-4.7-7.1c1.5-8,3.2-16,4.8-24c2.3-11.6,4.6-23.2,6.9-34.8c1.2-6.1,2.7-7.4,9-7.4c3.2,0,6.3,0,9.5,0
		c3.9,0.1,6.1,1.8,6.9,5.5c4,20,8,39.9,12,59.9c0.8,4.1-1.1,7.1-4.8,7.9c-3.3,0.7-6.4-1.6-7.2-5.5C502.2,318.2,501,312,499.7,305.6z
		 M497,293c-0.1-0.7-0.1-1.3-0.2-1.9c-1.3-6.8-2.7-13.5-4.1-20.3c-0.2-0.9,0-2.2-1.7-2.2c-1.8,0-1.6,1.3-1.8,2.4
		c-1.3,6.2-2.5,12.5-3.8,18.7c-0.2,1.1-0.4,2.2-0.6,3.4C489.1,293,493,293,497,293z"/>
	<path class="st1" d="M610,344.7c3.1,2.5,6,4.9,9,7.3c1.4,1.2,2.9,2.2,4.4,3.4c3.2,2.5,3.9,6.2,1.7,9.1c-2.2,2.8-6,3.1-9.2,0.5
		c-4.4-3.5-8.8-7-13.2-10.5c-0.4-0.3-0.7-0.5-1.2-0.9c-4.6,3.7-9.2,7.5-13.8,11.2c-0.8,0.7-1.7,1.3-2.7,1.7c-2.8,1-5.7-0.2-7.1-2.7
		c-1.5-2.6-1.1-5.6,1.4-7.7c3.9-3.3,7.9-6.6,11.9-9.8c0.6-0.5,1.1-1,1.8-1.6c-1.5-2.1-3.2-3.8-4.3-5.9c-3.2-6.3-6.3-12.6-9.3-19
		c-0.6-1.2-1-2-2.6-2c-3.6-0.2-5.9-2.8-5.9-6.1c0.1-3.4,2.6-5.9,6.3-5.9c5.9-0.1,11.8,0,18.1,0c0-1.9,0-3.7,0-5.5
		c0.1-4,2.6-6.7,6-6.8c3.5,0,6,2.7,6.1,6.7c0,1.8,0,3.6,0,5.6c5.7,0,11.1,0,16.5,0c1,0,2,0,3,0.1c3.1,0.3,5.4,2.8,5.4,5.9
		c0.1,3.2-2.1,5.9-5.4,6.1c-1.9,0.1-2.6,0.8-3.2,2.5c-2.7,8-6.8,15.3-12,22C611.3,342.8,610.8,343.6,610,344.7z M611.8,317.8
		c-6.9,0-13.4,0-20.2,0c2.4,6.5,5.6,12.2,10,17.6C605.8,329.9,609.5,324.4,611.8,317.8z"/>
	<path d="M497,293c-4,0-7.9,0-12.1,0c0.2-1.2,0.4-2.3,0.6-3.4c1.2-6.2,2.5-12.5,3.8-18.7c0.2-1,0-2.4,1.8-2.4c1.7,0,1.5,1.3,1.7,2.2
		c1.4,6.8,2.7,13.5,4.1,20.3C496.9,291.7,496.9,292.3,497,293z"/>
	<path d="M611.8,317.8c-2.3,6.6-6,12.1-10.2,17.6c-4.4-5.4-7.6-11.1-10-17.6C598.4,317.8,604.9,317.8,611.8,317.8z"/>
</g>
</svg>
