<?xml version="1.0" encoding="utf-8"?>
<!-- Generator: Adobe Illustrator 23.0.5, SVG Export Plug-In . SVG Version: 6.00 Build 0)  -->
<svg version="1.1" id="Calque_1" xmlns="http://www.w3.org/2000/svg" xmlns:xlink="http://www.w3.org/1999/xlink" x="0px" y="0px"
	 viewBox="0 0 1080 1080" style="enable-background:new 0 0 1080 1080;" xml:space="preserve">
<style type="text/css">
	.st0{fill:#B7807B;stroke:#000000;stroke-width:1.8831;stroke-miterlimit:10;}
</style>
<g>
	<path class="st0" d="M517.2,67c17.4,3.2,35.2,5,52.2,9.8c60.6,17,108.1,52.3,142.6,104.9c35.7,54.5,45.4,114.7,38.3,178.5
		c-8.4,75.7-32.7,146.5-64.3,215.2c-47.6,103.6-108.9,198.7-179.1,288.3c-1.6,2-3.3,3.8-5.6,6.4c-3.6-4.5-7-8.4-10.1-12.5
		c-71.4-92.3-133.7-190.2-181-297.1c-28.4-64.3-50.1-130.6-57.6-201c-5.8-54.8,0.1-107.5,26.1-156.8c29.2-55.3,73-94.8,131-118.1
		c23.2-9.3,47.3-14.8,72.2-16.5c1.3-0.1,2.5-0.7,3.7-1C496.3,67,506.7,67,517.2,67z M501.4,167.4c-83,0-150.8,67.9-150.6,150.8
		c0.2,82.8,67.5,150.1,150.2,150.4c82.9,0.3,150.8-67.4,151-150.4C652.2,235.3,584.4,167.4,501.4,167.4z"/>
</g>
<g>
	<path d="M412.8,274.1c-3.4-3.1-6.6-1-9.6-1.1c-4.9-0.2-2.8,5.1-5.4,7.1c-8.7-4.3-17.7-8.8-27.2-13.4c1.4-1,2.5-1.8,3.6-2.4
		c5.6-2.9,11.3-5.7,17-8.6c6.3-3.3,12.5-6.9,18.9-10.2c4.2-2.2,8.5-4.3,12.7-6.5c4.2-2.2,8.3-4.6,12.5-6.8c4.2-2.2,8.5-4.3,12.7-6.5
		c4.2-2.2,8.3-4.6,12.5-6.8c4.1-2.2,8.3-4.2,12.5-6.4c4.3-2.2,8.5-4.6,12.8-6.8c5-2.7,10-5.3,15.1-7.9c0.4-0.2,1.2,0,1.6,0.3
		c5.9,3,11.7,6,17.5,9.2c6.3,3.4,12.5,6.9,18.8,10.2c4.2,2.2,8.5,4.3,12.7,6.5c4.2,2.2,8.3,4.6,12.5,6.8c4,2.1,8,4.1,12,6.2
		c4.5,2.4,8.9,4.8,13.4,7.2c4.1,2.2,8.4,4.2,12.5,6.4c5,2.6,10,5.3,15,8c3.4,1.8,6.8,3.5,10.2,5.3c1.6,0.9,3.2,1.8,5.3,3
		c-6.4,3.1-12.2,5.8-18,8.7c-5.4,2.7-10.6,5.5-16,8.2c-4.6,2.3-9.2,4.4-13.8,6.5c-7.7,3.4-15.5,6.7-23.2,10
		c-7.2,3.1-14.4,6.2-21.6,9.2c-6.1,2.6-12.2,5.1-18.2,7.7c-6.5,2.8-13,5.6-19.5,8.4c-0.4,0.2-1,0.1-1.4-0.1
		c-5.6-2.3-11.2-4.7-16.8-7.1c-5.1-2.2-10.2-4.5-15.3-6.7c-3.6-1.5-7.3-2.9-10.9-4.4c-7-3-13.9-6-20.9-9c-5-2.1-10.1-4.1-15.1-6.3
		c-1.5-0.6-2.9-1.5-4.6-2.4c3.7-1.7,6.9-3.6,10.4-4.6c3-0.9,4-2.7,4.4-5.6c-2.8,0.7-5.5,1.3-8.1,2.1c-2.9,0.9-5.7,1.9-8.5,3
		c-0.7,0.3-1.6,1.3-1.6,2c-1,22.4-1.8,44.8-2.7,67.2c-0.2,4-0.3,8-0.6,12c-0.1,1-0.7,2.4-1.5,3c-4.6,3.2-12.4,4.6-18.6,1.4
		c-0.6-0.3-1.3-0.5-1.9-0.7c-2-0.7-3-2-3.1-4.3c-0.4-10.7,1.2-21.2,3.3-31.7c3.3-16.8,7.9-33.2,13.4-49.4c0.2-0.6,0.5-1.1,0.5-1.7
		c0-4.7,3.2-6.1,7-7C410.3,274.8,411.2,274.5,412.8,274.1z"/>
	<path d="M423.3,304.5c2.3,1,4.2,1.7,6.1,2.5c7.8,3.2,15.6,6.5,23.4,9.8c7.2,3,14.4,6.2,21.7,9.2c7.7,3.3,15.7,5.9,23,9.9
		c4.8,2.6,7.9-0.4,11.5-1.6c3.6-1.1,6.8-3,10.3-4.5c5.7-2.5,11.3-4.9,17-7.3c3.6-1.5,7.3-2.9,10.9-4.4c5.2-2.2,10.4-4.6,15.6-6.8
		c3.8-1.6,7.6-3.1,11.4-4.6c1.7-0.7,3.3-1.4,5.4-2.3c0,1.4,0,2.4,0,3.3c0,16.8,0,33.6,0,50.4c0,10.7-4.5,19.4-12.4,26.1
		c-4.8,4.1-10.1,7.5-15.6,10.7c-3.3,2-7.2,3.1-10.9,4.4c-6.4,2.3-13,3.4-19.7,4.6c-12.1,2.2-24.3,1.7-36.4,0.6
		c-6.6-0.6-13.3-2-19.6-4.1c-9.3-3-18.3-6.8-26-13c-7.3-5.8-13.3-12.7-15.2-22.2c-0.4-2.2-0.7-4.4-0.7-6.6c-0.1-17.5,0-35,0-52.5
		C423.2,305.9,423.2,305.5,423.3,304.5z"/>
</g>
</svg>
